<svg xmlns="http://www.w3.org/2000/svg" width="22.812" height="25" viewBox="0 0 22.812 25">
  <defs>
    <style>
      .cls-1 {
        fill: #f6f6f6;
        fill-rule: evenodd;
      }
    </style>
  </defs>
  <path id="CDM_Alt" data-name="CDM Alt" class="cls-1" d="M318.205,231.166a6.014,6.014,0,0,1,1.106,3.479h0a6.062,6.062,0,0,1-4.064,5.714,3.509,3.509,0,0,0-.62-1.924,4.041,4.041,0,0,0,2.655-3.79h0a4.05,4.05,0,0,0-6.254-3.391,6.076,6.076,0,1,0-11.646,3.391h0.007a6.083,6.083,0,0,0,2.736,3.258l-0.029.029a3.5,3.5,0,0,0-.95,1.741,8.1,8.1,0,0,1-3.88-5.028h0a8.1,8.1,0,0,1,10.727-9.578,6.063,6.063,0,0,1,6.859-3.96,4.044,4.044,0,0,0,4.858,4.842A5.98,5.98,0,0,1,318.205,231.166Zm-5.379-8.04a4.046,4.046,0,0,0-3,2.919h0a8.157,8.157,0,0,1,2.373,2.639,6.137,6.137,0,0,1,1.031-.1,6.064,6.064,0,0,1,3.552,1.148,4.032,4.032,0,0,0,.906-1.76A6.075,6.075,0,0,1,312.826,223.126Zm-8.22,15.163,1.075,1.072a1.519,1.519,0,1,1-2.151,0Zm3.549,4.043,1.076,1.072a1.519,1.519,0,1,1-2.152,0Zm3.549-4.043,1.076,1.072a1.519,1.519,0,1,1-2.151,0Z" transform="translate(-297 -221)"/>
</svg>
