<svg xmlns="http://www.w3.org/2000/svg" width="27.531" height="25" viewBox="0 0 27.531 25">
  <defs>
    <style>
      .cls-1 {
        fill: #fff;
        fill-rule: evenodd;
      }
    </style>
  </defs>
  <path id="CS" class="cls-1" d="M560.98,234.542h-2.04a1.042,1.042,0,0,1,0-2.084h2.04A1.042,1.042,0,0,1,560.98,234.542Zm-4.007-6.935a1,1,0,0,1-1.443,0,1.056,1.056,0,0,1,0-1.473l1.443-1.473a1,1,0,0,1,1.442,0,1.058,1.058,0,0,1,0,1.473Zm-1.5,8.13h0a6.3,6.3,0,0,1,1.431,4.013,6.186,6.186,0,0,1-6.12,6.25h-8.159a8.335,8.335,0,0,1,0-16.667,7.963,7.963,0,0,1,2.307.342,6.06,6.06,0,0,1,4.832-2.425,6.186,6.186,0,0,1,6.12,6.25A6.328,6.328,0,0,1,555.469,235.737Zm-18.968,1.93a6.187,6.187,0,0,0,6.12,6.25h8.159a4.168,4.168,0,0,0,0-8.334,3.99,3.99,0,0,0-2.21.673A6.1,6.1,0,0,0,536.5,237.667Zm13.259-8.334a4.026,4.026,0,0,0-2.888,1.224,8.309,8.309,0,0,1,2.871,3.05,5.919,5.919,0,0,1,1.037-.107,5.99,5.99,0,0,1,2.984.8h0a4.348,4.348,0,0,0,.076-0.8A4.125,4.125,0,0,0,549.76,229.333Zm0-4.166a1.031,1.031,0,0,1-1.019-1.042v-2.083a1.02,1.02,0,1,1,2.039,0v2.083A1.032,1.032,0,0,1,549.76,225.167Zm-7.212,2.44-1.442-1.473a1.056,1.056,0,0,1,0-1.473,1,1,0,0,1,1.442,0l1.442,1.473a1.056,1.056,0,0,1,0,1.473A1,1,0,0,1,542.548,227.607Z" transform="translate(-534.469 -221)"/>
</svg>
