<svg xmlns="http://www.w3.org/2000/svg" width="25.187" height="25" viewBox="0 0 25.187 25">
  <defs>
    <style>
      .cls-1 {
        fill: #fff;
        fill-rule: evenodd;
      }
    </style>
  </defs>
  <path id="Sun" class="cls-1" d="M440.253,235.542h-2.1a1.042,1.042,0,1,1,0-2.084h2.1A1.042,1.042,0,1,1,440.253,235.542Zm-4.122-6.935a1.054,1.054,0,0,1-1.484,0,1.038,1.038,0,0,1,0-1.473l1.484-1.473a1.054,1.054,0,0,1,1.484,0,1.036,1.036,0,0,1,0,1.473Zm-7.418,12.143a6.25,6.25,0,1,1,6.294-6.25A6.273,6.273,0,0,1,428.713,240.75Zm0-10.417a4.167,4.167,0,1,0,4.2,4.167A4.181,4.181,0,0,0,428.713,230.333Zm0-4.166a1.045,1.045,0,0,1-1.049-1.042v-2.083a1.049,1.049,0,0,1,2.1,0v2.083A1.046,1.046,0,0,1,428.713,226.167Zm-7.418,2.44-1.484-1.473a1.036,1.036,0,0,1,0-1.473,1.054,1.054,0,0,1,1.484,0l1.483,1.473a1.036,1.036,0,0,1,0,1.473A1.053,1.053,0,0,1,421.3,228.607ZM420.32,234.5a1.046,1.046,0,0,1-1.049,1.042h-2.1a1.042,1.042,0,1,1,0-2.084h2.1A1.046,1.046,0,0,1,420.32,234.5Zm0.975,5.892a1.055,1.055,0,0,1,1.483,0,1.037,1.037,0,0,1,0,1.474l-1.483,1.473a1.054,1.054,0,0,1-1.484,0,1.036,1.036,0,0,1,0-1.473Zm7.418,2.441a1.046,1.046,0,0,1,1.049,1.042v2.083a1.049,1.049,0,0,1-2.1,0v-2.083A1.045,1.045,0,0,1,428.713,242.833Zm7.418-2.441,1.484,1.474a1.036,1.036,0,0,1,0,1.473,1.054,1.054,0,0,1-1.484,0l-1.484-1.473a1.039,1.039,0,0,1,0-1.474A1.056,1.056,0,0,1,436.131,240.392Z" transform="translate(-416.125 -222)"/>
</svg>
